<mxfile host="app.diagrams.net" modified="2020-08-31T13:02:36.944Z" agent="5.0 (Macintosh; Intel Mac OS X 10_15_3) AppleWebKit/537.36 (KHTML, like Gecko) Chrome/84.0.4147.125 Safari/537.36" etag="3OWJ58_x5yxCobZ_v1Iq" version="13.6.5" type="github">
  <diagram id="cO2jYyVZYAyCBckMrJUI" name="Page-1">
    <mxGraphModel dx="983" dy="532" grid="1" gridSize="10" guides="1" tooltips="1" connect="1" arrows="1" fold="1" page="1" pageScale="1" pageWidth="1200" pageHeight="1920" math="0" shadow="0">
      <root>
        <mxCell id="0" />
        <mxCell id="1" parent="0" />
        <mxCell id="VDV8Fkp-Obfw-t-kH-pD-4" value="" style="group" vertex="1" connectable="0" parent="1">
          <mxGeometry x="740" y="185" width="140" height="140" as="geometry" />
        </mxCell>
        <mxCell id="VDV8Fkp-Obfw-t-kH-pD-1" value="&lt;font style=&quot;font-size: 20px&quot;&gt;Config.xml&lt;/font&gt;" style="shape=note;whiteSpace=wrap;html=1;backgroundOutline=1;darkOpacity=0.05;" vertex="1" parent="VDV8Fkp-Obfw-t-kH-pD-4">
          <mxGeometry width="120" height="100" as="geometry" />
        </mxCell>
        <mxCell id="VDV8Fkp-Obfw-t-kH-pD-2" value="&lt;font style=&quot;font-size: 20px&quot;&gt;Config.xml&lt;/font&gt;" style="shape=note;whiteSpace=wrap;html=1;backgroundOutline=1;darkOpacity=0.05;" vertex="1" parent="VDV8Fkp-Obfw-t-kH-pD-4">
          <mxGeometry x="10" y="20" width="120" height="100" as="geometry" />
        </mxCell>
        <mxCell id="VDV8Fkp-Obfw-t-kH-pD-3" value="&lt;font style=&quot;font-size: 20px&quot;&gt;Config.xml&lt;/font&gt;" style="shape=note;whiteSpace=wrap;html=1;backgroundOutline=1;darkOpacity=0.05;" vertex="1" parent="VDV8Fkp-Obfw-t-kH-pD-4">
          <mxGeometry x="20" y="40" width="120" height="100" as="geometry" />
        </mxCell>
        <mxCell id="VDV8Fkp-Obfw-t-kH-pD-9" value="" style="group" vertex="1" connectable="0" parent="1">
          <mxGeometry x="920" y="330" width="90" height="150" as="geometry" />
        </mxCell>
        <mxCell id="VDV8Fkp-Obfw-t-kH-pD-5" value="&lt;font style=&quot;font-size: 18px&quot;&gt;type&lt;/font&gt;" style="rounded=1;whiteSpace=wrap;html=1;" vertex="1" parent="VDV8Fkp-Obfw-t-kH-pD-9">
          <mxGeometry width="90" height="30" as="geometry" />
        </mxCell>
        <mxCell id="VDV8Fkp-Obfw-t-kH-pD-6" value="&lt;font style=&quot;font-size: 18px&quot;&gt;name&lt;/font&gt;" style="rounded=1;whiteSpace=wrap;html=1;" vertex="1" parent="VDV8Fkp-Obfw-t-kH-pD-9">
          <mxGeometry y="40" width="90" height="30" as="geometry" />
        </mxCell>
        <mxCell id="VDV8Fkp-Obfw-t-kH-pD-7" value="&lt;span style=&quot;font-size: 18px&quot;&gt;class&lt;/span&gt;" style="rounded=1;whiteSpace=wrap;html=1;" vertex="1" parent="VDV8Fkp-Obfw-t-kH-pD-9">
          <mxGeometry y="80" width="90" height="30" as="geometry" />
        </mxCell>
        <mxCell id="VDV8Fkp-Obfw-t-kH-pD-8" value="&lt;span style=&quot;font-size: 18px&quot;&gt;info&lt;/span&gt;" style="rounded=1;whiteSpace=wrap;html=1;" vertex="1" parent="VDV8Fkp-Obfw-t-kH-pD-9">
          <mxGeometry y="120" width="90" height="30" as="geometry" />
        </mxCell>
        <mxCell id="VDV8Fkp-Obfw-t-kH-pD-10" value="" style="shape=curlyBracket;whiteSpace=wrap;html=1;rounded=1;" vertex="1" parent="1">
          <mxGeometry x="890" y="341" width="20" height="130" as="geometry" />
        </mxCell>
        <mxCell id="VDV8Fkp-Obfw-t-kH-pD-11" value="&lt;font style=&quot;font-size: 18px&quot;&gt;Cache（Map）&lt;/font&gt;" style="shape=process;whiteSpace=wrap;html=1;backgroundOutline=1;" vertex="1" parent="1">
          <mxGeometry x="460" y="205" width="120" height="60" as="geometry" />
        </mxCell>
        <mxCell id="VDV8Fkp-Obfw-t-kH-pD-12" value="" style="endArrow=classic;html=1;exitX=1;exitY=0.5;exitDx=0;exitDy=0;entryX=0;entryY=0.5;entryDx=0;entryDy=0;entryPerimeter=0;" edge="1" parent="1" source="VDV8Fkp-Obfw-t-kH-pD-11" target="VDV8Fkp-Obfw-t-kH-pD-1">
          <mxGeometry width="50" height="50" relative="1" as="geometry">
            <mxPoint x="830" y="430" as="sourcePoint" />
            <mxPoint x="880" y="380" as="targetPoint" />
          </mxGeometry>
        </mxCell>
        <mxCell id="VDV8Fkp-Obfw-t-kH-pD-13" value="反射Load" style="text;html=1;strokeColor=none;fillColor=none;align=center;verticalAlign=middle;whiteSpace=wrap;rounded=0;" vertex="1" parent="1">
          <mxGeometry x="610" y="210" width="80" height="20" as="geometry" />
        </mxCell>
        <mxCell id="VDV8Fkp-Obfw-t-kH-pD-14" value="&lt;font style=&quot;font-size: 18px&quot;&gt;Context&lt;/font&gt;" style="rounded=1;whiteSpace=wrap;html=1;" vertex="1" parent="1">
          <mxGeometry x="230" y="215" width="120" height="40" as="geometry" />
        </mxCell>
        <mxCell id="VDV8Fkp-Obfw-t-kH-pD-15" value="" style="endArrow=classic;html=1;exitX=1;exitY=0.5;exitDx=0;exitDy=0;entryX=0;entryY=0.5;entryDx=0;entryDy=0;" edge="1" parent="1" source="VDV8Fkp-Obfw-t-kH-pD-14" target="VDV8Fkp-Obfw-t-kH-pD-11">
          <mxGeometry width="50" height="50" relative="1" as="geometry">
            <mxPoint x="400" y="310" as="sourcePoint" />
            <mxPoint x="450" y="260" as="targetPoint" />
          </mxGeometry>
        </mxCell>
        <mxCell id="VDV8Fkp-Obfw-t-kH-pD-16" value="单例" style="text;html=1;strokeColor=none;fillColor=none;align=center;verticalAlign=middle;whiteSpace=wrap;rounded=0;" vertex="1" parent="1">
          <mxGeometry x="380" y="210" width="40" height="20" as="geometry" />
        </mxCell>
        <mxCell id="VDV8Fkp-Obfw-t-kH-pD-17" value="&lt;font style=&quot;font-size: 13px&quot;&gt;Project Start&lt;/font&gt;" style="shape=step;perimeter=stepPerimeter;whiteSpace=wrap;html=1;fixedSize=1;" vertex="1" parent="1">
          <mxGeometry x="100" y="220" width="120" height="35" as="geometry" />
        </mxCell>
        <mxCell id="VDV8Fkp-Obfw-t-kH-pD-19" value="&lt;font style=&quot;font-size: 18px&quot;&gt;Job Analysis Task&lt;/font&gt;" style="rounded=1;whiteSpace=wrap;html=1;" vertex="1" parent="1">
          <mxGeometry x="440" y="325" width="160" height="40" as="geometry" />
        </mxCell>
        <mxCell id="VDV8Fkp-Obfw-t-kH-pD-20" value="" style="endArrow=classic;html=1;exitX=0.5;exitY=1;exitDx=0;exitDy=0;" edge="1" parent="1" source="VDV8Fkp-Obfw-t-kH-pD-11" target="VDV8Fkp-Obfw-t-kH-pD-19">
          <mxGeometry width="50" height="50" relative="1" as="geometry">
            <mxPoint x="650" y="350" as="sourcePoint" />
            <mxPoint x="700" y="300" as="targetPoint" />
          </mxGeometry>
        </mxCell>
        <mxCell id="VDV8Fkp-Obfw-t-kH-pD-21" value="&lt;font style=&quot;font-size: 18px&quot;&gt;Result&lt;/font&gt;" style="shape=process;whiteSpace=wrap;html=1;backgroundOutline=1;" vertex="1" parent="1">
          <mxGeometry x="465" y="410" width="110" height="40" as="geometry" />
        </mxCell>
        <mxCell id="VDV8Fkp-Obfw-t-kH-pD-22" value="" style="endArrow=classic;html=1;exitX=0.5;exitY=1;exitDx=0;exitDy=0;entryX=0.5;entryY=0;entryDx=0;entryDy=0;" edge="1" parent="1" source="VDV8Fkp-Obfw-t-kH-pD-19" target="VDV8Fkp-Obfw-t-kH-pD-21">
          <mxGeometry width="50" height="50" relative="1" as="geometry">
            <mxPoint x="780" y="480" as="sourcePoint" />
            <mxPoint x="830" y="430" as="targetPoint" />
          </mxGeometry>
        </mxCell>
        <mxCell id="VDV8Fkp-Obfw-t-kH-pD-23" value="从cache中获取" style="text;html=1;strokeColor=none;fillColor=none;align=center;verticalAlign=middle;whiteSpace=wrap;rounded=0;" vertex="1" parent="1">
          <mxGeometry x="529" y="286" width="90" height="20" as="geometry" />
        </mxCell>
        <mxCell id="VDV8Fkp-Obfw-t-kH-pD-25" value="&lt;font style=&quot;font-size: 20px&quot;&gt;New&lt;br&gt;Config.xml&lt;/font&gt;" style="shape=note;whiteSpace=wrap;html=1;backgroundOutline=1;darkOpacity=0.05;fillColor=#fff2cc;strokeColor=#d6b656;" vertex="1" parent="1">
          <mxGeometry x="760" y="365" width="120" height="70" as="geometry" />
        </mxCell>
        <mxCell id="VDV8Fkp-Obfw-t-kH-pD-26" value="" style="endArrow=classic;html=1;exitX=0;exitY=0;exitDx=45;exitDy=0;exitPerimeter=0;entryX=0.37;entryY=1.009;entryDx=0;entryDy=0;entryPerimeter=0;" edge="1" parent="1" source="VDV8Fkp-Obfw-t-kH-pD-25" target="VDV8Fkp-Obfw-t-kH-pD-3">
          <mxGeometry width="50" height="50" relative="1" as="geometry">
            <mxPoint x="910" y="430" as="sourcePoint" />
            <mxPoint x="806" y="326" as="targetPoint" />
          </mxGeometry>
        </mxCell>
        <mxCell id="VDV8Fkp-Obfw-t-kH-pD-27" value="1" style="text;html=1;strokeColor=#666666;fillColor=#f5f5f5;align=center;verticalAlign=middle;whiteSpace=wrap;rounded=0;fontColor=#333333;" vertex="1" parent="1">
          <mxGeometry x="150" y="195" width="20" height="20" as="geometry" />
        </mxCell>
        <mxCell id="VDV8Fkp-Obfw-t-kH-pD-28" value="2" style="text;html=1;strokeColor=#666666;fillColor=#f5f5f5;align=center;verticalAlign=middle;whiteSpace=wrap;rounded=0;fontColor=#333333;" vertex="1" parent="1">
          <mxGeometry x="390" y="185" width="20" height="20" as="geometry" />
        </mxCell>
        <mxCell id="VDV8Fkp-Obfw-t-kH-pD-29" value="3" style="text;html=1;strokeColor=#666666;fillColor=#f5f5f5;align=center;verticalAlign=middle;whiteSpace=wrap;rounded=0;fontColor=#333333;" vertex="1" parent="1">
          <mxGeometry x="640" y="185" width="20" height="20" as="geometry" />
        </mxCell>
        <mxCell id="VDV8Fkp-Obfw-t-kH-pD-30" value="4" style="text;html=1;strokeColor=#666666;fillColor=#f5f5f5;align=center;verticalAlign=middle;whiteSpace=wrap;rounded=0;fontColor=#333333;" vertex="1" parent="1">
          <mxGeometry x="490" y="286" width="20" height="20" as="geometry" />
        </mxCell>
        <mxCell id="VDV8Fkp-Obfw-t-kH-pD-31" value="5" style="text;html=1;strokeColor=#666666;fillColor=#f5f5f5;align=center;verticalAlign=middle;whiteSpace=wrap;rounded=0;fontColor=#333333;" vertex="1" parent="1">
          <mxGeometry x="530" y="380" width="20" height="20" as="geometry" />
        </mxCell>
        <mxCell id="VDV8Fkp-Obfw-t-kH-pD-32" value="6" style="text;html=1;strokeColor=#666666;fillColor=#f5f5f5;align=center;verticalAlign=middle;whiteSpace=wrap;rounded=0;fontColor=#333333;" vertex="1" parent="1">
          <mxGeometry x="820" y="335" width="20" height="20" as="geometry" />
        </mxCell>
      </root>
    </mxGraphModel>
  </diagram>
</mxfile>
